{
    "accessors" : [{
        "bufferView" : 0, 
        "componentType" : 5123, 
        "count" : 1200, 
        "max" : [728], 
        "min" : [0], 
        "type" : "SCALAR"
    }, {
        "bufferView" : 1, 
        "componentType" : 5126, 
        "count" : 729, 
        "max" : [2.24564, 2.09644, 2.28256], 
        "min" : [-2.0278, -1, -2.65256], 
        "type" : "VEC3"
    }, {
        "bufferView" : 2, 
        "componentType" : 5126, 
        "count" : 729, 
        "max" : [1, 1, 1], 
        "min" : [-1, -1, -1], 
        "type" : "VEC3"
    }], 
    "asset" : {
        "generator" : "Khronos Blender glTF 2.0 exporter", 
        "version" : "2.0"
    }, 
    "bufferViews" : [{
        "buffer" : 0, 
        "byteLength" : 2400, 
        "byteOffset" : 0, 
        "target" : 34963
    }, {
        "buffer" : 0, 
        "byteLength" : 8748, 
        "byteOffset" : 2400, 
        "target" : 34962
    }, {
        "buffer" : 0, 
        "byteLength" : 8748, 
        "byteOffset" : 11148, 
        "target" : 34962
    }], 
    "buffers" : [{
        "byteLength" : 19896, 
        "uri" : "moncher.bin"
    }], 
    "materials" : [{
        "name" : "Material", 
        "pbrMetallicRoughness" : {
            "baseColorFactor" : [0.64, 0.64, 0.64, 1], 
            "metallicFactor" : 0
        }
    }], 
    "meshes" : [{
        "name" : "Cube", 
        "primitives" : [{
            "attributes" : {
                "NORMAL" : 2, 
                "POSITION" : 1
            }, 
            "indices" : 0, 
            "material" : 0
        }]
    }], 
    "nodes" : [{
        "name" : "Camera", 
        "rotation" : [0.483536, 0.336872, -0.208704, 0.780483], 
        "translation" : [7.48113, 5.34367, 6.50764]
    }, {
        "mesh" : 0, 
        "name" : "Cube"
    }, {
        "name" : "Lamp", 
        "rotation" : [0.169076, 0.75588, -0.272171, 0.570948], 
        "scale" : [1, 1, 1], 
        "translation" : [4.07625, 5.90386, -1.00545]
    }], 
    "scene" : 0, 
    "scenes" : [{
        "name" : "Scene", 
        "nodes" : [1, 2, 0]
    }]
}
