{
    "accessors" : [
        {
            "bufferView" : 0, 
            "componentType" : 5121, 
            "count" : 24, 
            "max" : [
                15
            ], 
            "min" : [
                0
            ], 
            "type" : "SCALAR"
        }, 
        {
            "bufferView" : 1, 
            "componentType" : 5126, 
            "count" : 16, 
            "max" : [
                0.9999994039535522, 
                1.1879650354385376, 
                1.6060513257980347
            ], 
            "min" : [
                -2.027801752090454, 
                -1.0, 
                -0.343221515417099
            ], 
            "type" : "VEC3"
        }, 
        {
            "bufferView" : 2, 
            "componentType" : 5126, 
            "count" : 16, 
            "max" : [
                1.6340233344180888e-07, 
                1.1862725557421072e-07, 
                1.0
            ], 
            "min" : [
                -0.9999999403953552, 
                -1.5920615226150403e-07, 
                -1.0
            ], 
            "type" : "VEC3"
        }, 
        {
            "bufferView" : 3, 
            "componentType" : 5121, 
            "count" : 12, 
            "max" : [
                7
            ], 
            "min" : [
                0
            ], 
            "type" : "SCALAR"
        }, 
        {
            "bufferView" : 4, 
            "componentType" : 5126, 
            "count" : 8, 
            "max" : [
                2.245635986328125, 
                1.0000003576278687, 
                -0.3432197570800781
            ], 
            "min" : [
                -1.4073433876037598, 
                0.7487732768058777, 
                -1.624221920967102
            ], 
            "type" : "VEC3"
        }, 
        {
            "bufferView" : 5, 
            "componentType" : 5126, 
            "count" : 8, 
            "max" : [
                2.9100138476678694e-07, 
                7.117636187103926e-07, 
                1.0
            ], 
            "min" : [
                -7.163060899983975e-07, 
                -4.7450899387513346e-07, 
                -0.9999999403953552
            ], 
            "type" : "VEC3"
        }, 
        {
            "bufferView" : 6, 
            "componentType" : 5123, 
            "count" : 1152, 
            "max" : [
                699
            ], 
            "min" : [
                0
            ], 
            "type" : "SCALAR"
        }, 
        {
            "bufferView" : 7, 
            "componentType" : 5126, 
            "count" : 700, 
            "max" : [
                2.245636463165283, 
                2.096442222595215, 
                2.282561779022217
            ], 
            "min" : [
                -2.027801990509033, 
                -1.0, 
                -2.652564525604248
            ], 
            "type" : "VEC3"
        }, 
        {
            "bufferView" : 8, 
            "componentType" : 5126, 
            "count" : 700, 
            "max" : [
                1.0, 
                1.0, 
                1.0
            ], 
            "min" : [
                -1.0, 
                -1.0, 
                -1.0
            ], 
            "type" : "VEC3"
        }, 
        {
            "bufferView" : 9, 
            "componentType" : 5121, 
            "count" : 12, 
            "max" : [
                7
            ], 
            "min" : [
                0
            ], 
            "type" : "SCALAR"
        }, 
        {
            "bufferView" : 10, 
            "componentType" : 5126, 
            "count" : 8, 
            "max" : [
                1.7463698387145996, 
                1.8489304780960083, 
                1.0000001192092896
            ], 
            "min" : [
                -0.6053286194801331, 
                0.9999999403953552, 
                -0.9999989867210388
            ], 
            "type" : "VEC3"
        }, 
        {
            "bufferView" : 11, 
            "componentType" : 5126, 
            "count" : 8, 
            "max" : [
                1.0, 
                1.0, 
                1.1169597655680263e-06
            ], 
            "min" : [
                0.0, 
                -1.4042291240912164e-07, 
                0.0
            ], 
            "type" : "VEC3"
        }
    ], 
    "asset" : {
        "copyright" : "Walter Perdan", 
        "generator" : "Khronos Blender glTF 2.0 exporter", 
        "version" : "2.0"
    }, 
    "bufferViews" : [
        {
            "buffer" : 0, 
            "byteLength" : 24, 
            "byteOffset" : 0, 
            "target" : 34963
        }, 
        {
            "buffer" : 0, 
            "byteLength" : 192, 
            "byteOffset" : 24, 
            "target" : 34962
        }, 
        {
            "buffer" : 0, 
            "byteLength" : 192, 
            "byteOffset" : 216, 
            "target" : 34962
        }, 
        {
            "buffer" : 0, 
            "byteLength" : 12, 
            "byteOffset" : 408, 
            "target" : 34963
        }, 
        {
            "buffer" : 0, 
            "byteLength" : 96, 
            "byteOffset" : 420, 
            "target" : 34962
        }, 
        {
            "buffer" : 0, 
            "byteLength" : 96, 
            "byteOffset" : 516, 
            "target" : 34962
        }, 
        {
            "buffer" : 0, 
            "byteLength" : 2304, 
            "byteOffset" : 612, 
            "target" : 34963
        }, 
        {
            "buffer" : 0, 
            "byteLength" : 8400, 
            "byteOffset" : 2916, 
            "target" : 34962
        }, 
        {
            "buffer" : 0, 
            "byteLength" : 8400, 
            "byteOffset" : 11316, 
            "target" : 34962
        }, 
        {
            "buffer" : 0, 
            "byteLength" : 12, 
            "byteOffset" : 19716, 
            "target" : 34963
        }, 
        {
            "buffer" : 0, 
            "byteLength" : 96, 
            "byteOffset" : 19728, 
            "target" : 34962
        }, 
        {
            "buffer" : 0, 
            "byteLength" : 96, 
            "byteOffset" : 19824, 
            "target" : 34962
        }
    ], 
    "buffers" : [
        {
            "byteLength" : 19920, 
            "uri" : "moncher.bin"
        }
    ], 
    "materials" : [
        {
            "name" : "blue", 
            "pbrMetallicRoughness" : {
                "baseColorFactor" : [
                    0.002240012246966544, 
                    0.0070278116617770725, 
                    0.6950764759641359, 
                    1.0
                ], 
                "metallicFactor" : 0.0
            }
        }, 
        {
            "name" : "red", 
            "pbrMetallicRoughness" : {
                "baseColorFactor" : [
                    0.752312814478767, 
                    0.0022705933417468266, 
                    0.0, 
                    1.0
                ], 
                "metallicFactor" : 0.0
            }
        }, 
        {
            "alphaMode" : "BLEND", 
            "name" : "white", 
            "pbrMetallicRoughness" : {
                "baseColorFactor" : [
                    0.8666772238058797, 
                    0.8666772238058797, 
                    0.8666772238058797, 
                    0.8333333730697632
                ], 
                "metallicFactor" : 0.0
            }
        }, 
        {
            "name" : "yellow", 
            "pbrMetallicRoughness" : {
                "baseColorFactor" : [
                    0.6389837837067809, 
                    0.640000066757203, 
                    0.01226748991411164, 
                    1.0
                ], 
                "metallicFactor" : 0.0
            }
        }
    ], 
    "meshes" : [
        {
            "name" : "Cube", 
            "primitives" : [
                {
                    "attributes" : {
                        "NORMAL" : 2, 
                        "POSITION" : 1
                    }, 
                    "indices" : 0, 
                    "material" : 1
                }, 
                {
                    "attributes" : {
                        "NORMAL" : 5, 
                        "POSITION" : 4
                    }, 
                    "indices" : 3, 
                    "material" : 3
                }, 
                {
                    "attributes" : {
                        "NORMAL" : 8, 
                        "POSITION" : 7
                    }, 
                    "indices" : 6, 
                    "material" : 2
                }, 
                {
                    "attributes" : {
                        "NORMAL" : 11, 
                        "POSITION" : 10
                    }, 
                    "indices" : 9, 
                    "material" : 0
                }
            ]
        }
    ], 
    "nodes" : [
        {
            "name" : "Camera", 
            "rotation" : [
                0.483536034822464, 
                0.33687159419059753, 
                -0.20870360732078552, 
                0.7804827094078064
            ], 
            "translation" : [
                7.481131553649902, 
                5.34366512298584, 
                6.5076398849487305
            ]
        }, 
        {
            "mesh" : 0, 
            "name" : "Cube", 
            "translation" : [
                0.0, 
                1.0, 
                -0.0
            ]
        }, 
        {
            "name" : "Lamp", 
            "rotation" : [
                0.16907575726509094, 
                0.7558802962303162, 
                -0.27217137813568115, 
                0.570947527885437
            ], 
            "scale" : [
                1.0, 
                1.0, 
                0.9999999403953552
            ], 
            "translation" : [
                4.076245307922363, 
                5.903861999511719, 
                -1.0054539442062378
            ]
        }
    ], 
    "scene" : 0, 
    "scenes" : [
        {
            "name" : "Scene", 
            "nodes" : [
                1, 
                2, 
                0
            ]
        }
    ]
}
